<?xml version="1.0" encoding="utf-8"?>
<!-- Generator: Adobe Illustrator 22.0.0, SVG Export Plug-In . SVG Version: 6.00 Build 0)  -->
<svg version="1.1" id="Layer_1" xmlns="http://www.w3.org/2000/svg" xmlns:xlink="http://www.w3.org/1999/xlink" x="0px" y="0px"
	 viewBox="0 0 783 1000" style="enable-background:new 0 0 783 1000;" xml:space="preserve">
<style type="text/css">
	.st0{fill:#d9947f;}
</style>
<g>
	<g>
		<path class="st0" d="M77.5,779.8c-7.5-15.6-8.2-24.7,1.7-55.1c9.4-28.9,1.3-61.9,1.2-62.2l3.8-1c0.4,1.4,8.6,34.4-1.3,64.4
			c-9.5,29.3-9,37.4-1.9,52.1L77.5,779.8z"/>
	</g>
	<g>
		<path class="st0" d="M435.4,568.4c-5.5,0-10.9-0.2-16.2-0.4c-46.7-2.5-105.6-14.9-165.9-35C141.1,495.5,33.3,432.1,47,390.9
			c13.8-41.2,138.1-27,250.2,10.4c112.2,37.5,220.1,100.8,206.3,142C496.9,563.3,465.5,568.4,435.4,568.4z M115.9,373.8
			c-35,0-57.1,7.1-61.3,19.7c-9.4,28.1,69.3,87.9,201.3,132c59.6,19.9,117.8,32.2,163.8,34.6c43.7,2.3,71.6-4.7,76.4-19.2l0,0
			c9.4-28.1-69.2-87.9-201.3-132C221.9,384.5,159.1,373.8,115.9,373.8z"/>
	</g>
	<path class="st0" d="M344.1,490.1c-3.5,10.5-37.1,8.7-75.1-4c-38-12.7-65.9-31.5-62.4-42c3.5-10.5,37.1-8.7,75.1,4
		C319.6,460.8,347.6,479.6,344.1,490.1z"/>
	<g>
		<path class="st0" d="M324.4,745.3c-19.3,0-32.3-4-36-13.3c-12.6-31.4,94.1-93.8,200.8-136.7c106.7-42.9,227-71.5,239.6-40.1l0,0
			c5.7,14.2-11.9,35-52.3,61.8c-37.7,25-90.5,51.6-148.6,74.9C452.7,722.2,370.6,745.3,324.4,745.3z M694,549.8
			c-38.3,0-112.6,17.2-201.8,53c-125.4,50.4-204.2,107-196.4,126.4c7.8,19.3,103.8,5.8,229.3-44.5c57.6-23.1,109.9-49.5,147.2-74.2
			c40.9-27.1,52.3-44.7,49.3-52.2v0C719.2,552.6,709.6,549.8,694,549.8z"/>
	</g>
	<path class="st0" d="M567.4,620c3.6,9-19.8,26.8-52.3,39.8c-32.5,13-61.7,16.3-65.3,7.3c-3.6-9,19.8-26.8,52.2-39.8
		C534.6,614.4,563.8,611.1,567.4,620z"/>
	<path class="st0" d="M412.4,498.2c0,16.8-13.6,30.4-30.4,30.4c-16.8,0-30.4-13.6-30.4-30.4c0-16.8,13.6-30.4,30.4-30.4
		C398.8,467.8,412.4,481.4,412.4,498.2z"/>
	<g>
		
			<rect x="343.3" y="222.1" transform="matrix(0.9678 -0.2519 0.2519 0.9678 -79.4702 99.0781)" class="st0" width="7.9" height="275.6"/>
	</g>
	<g>
		<path class="st0" d="M617.1,611.7c-4,12.1-17,18.7-29.1,14.8c-12.1-3.9-18.7-17-14.8-29.1c4-12.1,17-18.7,29.1-14.8
			C614.4,586.5,621,599.6,617.1,611.7z"/>
		<g>
			
				<rect x="467.2" y="458.4" transform="matrix(6.035594e-02 -0.9982 0.9982 6.035594e-02 107.0073 1038.3655)" class="st0" width="275.6" height="7.9"/>
		</g>
	</g>
	<g>
		<path class="st0" d="M210.8,660C43.7,569.8,46.7,404.7,46.7,403.1l7.9,0.2c0,1.6-2.8,161.9,159.9,249.7L210.8,660z"/>
	</g>
	<g>
		<path class="st0" d="M421,634.5l-3.7-7c71.8-37.7,77.6-81.7,77.7-82.2l7.9,0.9C502.7,548.1,496.9,594.7,421,634.5z"/>
	</g>
	<g>
		<path class="st0" d="M97.7,691.6c-11.1,0-19.5-0.2-23.9-0.8c-20.1-2.4-27.4-10.6-27.4-17.5c-0.1-6.3,5.9-13.8,22.8-16.1
			c19.8-2.6,296.2-7.7,308-7.9l0.1,7.1c-2.9,0.1-287.8,5.3-307.1,7.9c-10.9,1.5-16.6,5.6-16.6,8.9c0,3.2,5.7,8.7,21.1,10.5
			c30.4,3.6,255.7-7.5,257.9-7.6l0.4,7.1C324.9,683.7,163.5,691.6,97.7,691.6z"/>
	</g>
	<g>
		<path class="st0" d="M86.9,869.7c-13.4-17.4-6.9-37.8,1.3-63.8c3.5-11.1,7.5-23.8,10.5-37.7c7-33.2,0.6-52.4-3.6-65.1
			c-1.6-4.9-2.9-8.8-3.1-12.4c-0.6-12-2.4-30.8-2.4-31l4-0.4c0,0.2,1.8,19.1,2.4,31.2c0.2,3,1.4,6.7,2.9,11.3
			c4.4,13.1,11,32.8,3.7,67.1c-3,14.2-7,26.9-10.6,38.1c-8.2,25.8-14.1,44.4-2,60.2L86.9,869.7z"/>
	</g>
	
		<ellipse transform="matrix(0.9212 -0.3891 0.3891 0.9212 -330.9912 102.8718)" class="st0" cx="88.4" cy="868.5" rx="9.1" ry="9.1"/>
	<circle class="st0" cx="79.3" cy="779" r="9.1"/>
	<path class="st0" d="M209.3,939.9c0,5-4.1,9.1-9.1,9.1c-5,0-9.1-4.1-9.1-9.1c0-5,4.1-9.1,9.1-9.1
		C205.2,930.8,209.3,934.8,209.3,939.9z"/>
	
		<ellipse transform="matrix(0.9209 -0.3897 0.3897 0.9209 -365.7558 140.7833)" class="st0" cx="164.1" cy="971.9" rx="9.1" ry="9.1"/>
	<path class="st0" d="M136,672.6c0,3.7-3,6.7-6.7,6.7c-3.7,0-6.7-3-6.7-6.7c0-3.7,3-6.7,6.7-6.7C133,665.9,136,668.9,136,672.6z"/>
	<path class="st0" d="M197.5,788.1c0,3.7-3,6.7-6.7,6.7c-3.7,0-6.7-3-6.7-6.7c0-3.7,3-6.7,6.7-6.7
		C194.5,781.4,197.4,784.4,197.5,788.1z"/>
	<path class="st0" d="M215.1,762.5c0,3.7-3,6.7-6.7,6.7c-3.7,0-6.7-3-6.7-6.7c0-3.7,3-6.7,6.7-6.7
		C212.1,755.8,215.1,758.8,215.1,762.5z"/>
	<path class="st0" d="M232.8,736.9c0,3.7-3,6.7-6.7,6.7c-3.7,0-6.7-3-6.7-6.7c0-3.7,3-6.7,6.7-6.7
		C229.8,730.2,232.8,733.2,232.8,736.9z"/>
	<path class="st0" d="M250.4,711.3c0,3.7-3,6.7-6.7,6.7c-3.7,0-6.7-3-6.7-6.7c0-3.7,3-6.7,6.7-6.7
		C247.4,704.6,250.4,707.6,250.4,711.3z"/>
	<path class="st0" d="M178.6,671.3c0,3.7-3,6.7-6.7,6.7c-3.7,0-6.7-3-6.7-6.7c0-3.7,3-6.7,6.7-6.7
		C175.6,664.6,178.6,667.6,178.6,671.3z"/>
	<path class="st0" d="M221.2,670c0,3.7-3,6.7-6.7,6.7c-3.7,0-6.7-3-6.7-6.7c0-3.7,3-6.7,6.7-6.7C218.2,663.3,221.2,666.3,221.2,670z
		"/>
	<path class="st0" d="M263.9,668.7c0,3.7-3,6.7-6.7,6.7c-3.7,0-6.7-3-6.7-6.7c0-3.7,3-6.7,6.7-6.7C260.9,662,263.8,665,263.9,668.7z
		"/>
	<g>
		<path class="st0" d="M134.5,863.1c-2,0-3.8-0.4-5.3-1.2c-2.7-1.5-6.5-5.6-2-16.1c12.3-28.8,113.7-157.9,118-163.4l5.6,4.4
			c-1,1.3-105.2,133.8-117.1,161.8c-1.9,4.5-1.7,6.7-1,7.1c4.3,2.4,26.5-7.4,41.8-28.3c14.6-19.9,108.4-146.8,108.4-146.8l5.7,4.3
			c0,0-93.8,126.9-108.4,146.8C167.2,849.4,146.5,863.1,134.5,863.1z"/>
	</g>
	<g>
		<path class="st0" d="M162.3,972.8c-9.4-18.8-6.9-30.3-3.2-47.8c1.1-5.2,2.4-11.1,3.4-17.8l0.9-5.7c2.7-16.3,7.3-43.7,4.1-61.2
			c-3.3-18-21.7-15.8-22.5-15.7l-0.5-3.9c0.2,0,22.9-2.7,26.9,19c3.3,18.2-1.3,46-4.1,62.6l-0.9,5.7c-1.1,6.8-2.4,12.8-3.5,18
			c-3.7,17.3-5.9,27.7,2.8,45.2L162.3,972.8z"/>
	</g>
	<g>
		<path class="st0" d="M199.1,941.6c-8.2-5.3-15.4-15-12.3-49.8c3.1-35.4-12.3-59.2-12.5-59.5c-0.2-0.2-0.3-0.5-0.3-0.8
			c-1.1-7.6-4.4-15.6-20.6-17l0.3-4c14.5,1.2,22.2,7.6,24.1,20c2.1,3.4,15.9,26.9,12.9,61.6c-3.3,37.3,5.7,43,10.5,46.1L199.1,941.6
			z"/>
	</g>
	<g>
		<path class="st0" d="M115.9,541c-4.1,0-8.2-0.4-12.3-1.3c-22.7-5-37.2-27.5-32.2-50.2c3.7-16.9,20.5-27.6,37.3-24
			c12.7,2.8,20.8,15.4,18,28.1c-2.1,9.7-11.7,15.8-21.4,13.7c-7.5-1.6-12.3-9.1-10.6-16.6c0.4-1.9,2.3-3.1,4.3-2.7
			c1.9,0.4,3.1,2.3,2.7,4.3c-0.8,3.7,1.5,7.3,5.2,8.1c5.8,1.3,11.6-2.4,12.9-8.3c1.9-8.9-3.7-17.6-12.6-19.6
			c-13-2.8-26,5.5-28.8,18.5c-4.1,18.9,7.9,37.6,26.8,41.7c13.1,2.9,26.5,0.5,37.7-6.8c11.3-7.2,19-18.4,21.9-31.5
			c0.4-1.9,2.3-3.1,4.3-2.7c1.9,0.4,3.1,2.3,2.7,4.3c-3.3,14.9-12.1,27.7-25,36C137.4,537.9,126.7,541,115.9,541z"/>
	</g>
	<g>
		<path class="st0" d="M167.2,620.1c-7.6,0-14.8-2.8-20.5-7.9c-6.1-5.5-9.7-13-10.1-21.2c-0.3-6.1,1.8-12.1,5.9-16.6
			c4.1-4.6,9.8-7.3,15.9-7.6c9.6-0.5,18,7,18.5,16.7c0.1,2-1.4,3.7-3.4,3.8c-2,0.2-3.7-1.4-3.8-3.4c-0.3-5.8-5.3-10.3-11-9.9
			c-4.2,0.2-8.2,2.1-11,5.2c-2.8,3.2-4.3,7.2-4.1,11.5c0.3,6.3,3.1,12,7.7,16.2c4.7,4.2,10.7,6.4,16.9,6c9.1-0.5,17.4-4.5,23.5-11.2
			c6.1-6.8,9.2-15.5,8.7-24.6c-0.7-13-6.4-24.9-16-33.7c-9.7-8.7-22.2-13.2-35.1-12.5c-2,0.1-3.7-1.4-3.8-3.4
			c-0.1-2,1.4-3.7,3.4-3.8c14.9-0.7,29.2,4.3,40.3,14.3c11.1,10,17.6,23.7,18.4,38.6c0.6,11-3.2,21.5-10.5,29.7
			c-7.4,8.2-17.5,13-28.5,13.6C168.3,620.1,167.7,620.1,167.2,620.1z"/>
	</g>
	<g>
		<path class="st0" d="M238.4,589.6c-1.3,0-2.6,0-3.8-0.1c-21.6-1.6-37.9-20.4-36.3-41.9c1.2-16.1,15.2-28.2,31.3-27.1
			c12.1,0.9,21.3,11.4,20.4,23.6c-0.7,9.3-8.8,16.3-18,15.6c-2-0.1-3.5-1.9-3.3-3.8c0.1-2,1.9-3.4,3.8-3.3c5.3,0.4,10-3.6,10.4-9
			c0.6-8.2-5.6-15.3-13.8-15.9c-12.2-0.9-22.7,8.3-23.6,20.4c-1.3,17.6,12,33,29.7,34.3c25.2,1.8,47.3-17.3,49.1-42.5
			c0.1-2,1.8-3.4,3.8-3.3c2,0.1,3.4,1.9,3.3,3.8C289.4,568.2,266,589.6,238.4,589.6z"/>
	</g>
	<g>
		<path class="st0" d="M213.9,660.1c-1.4,0-2.7-0.8-3.3-2.1c-5.9-13.1-6.4-27.7-1.3-41.1c5.1-13.4,15.1-24.1,28.2-30
			c19.9-9,43.5-0.1,52.5,19.8c6.7,14.9,0.1,32.4-14.8,39.1c-11.2,5-24.4,0.1-29.5-11.1c-3.9-8.6,0-18.7,8.5-22.5
			c1.8-0.8,3.9,0,4.7,1.8c0.8,1.8,0,3.9-1.8,4.7c-5,2.2-7.2,8.1-4.9,13.1c3.4,7.6,12.4,11,20,7.6c11.3-5.1,16.3-18.4,11.2-29.6
			c-7.4-16.3-26.7-23.6-43-16.3c-11.3,5.1-20,14.4-24.4,26c-4.4,11.6-4,24.3,1.1,35.6c0.8,1.8,0,3.9-1.8,4.7
			C214.9,660,214.4,660.1,213.9,660.1z"/>
	</g>
	<g>
		<path class="st0" d="M317.2,624.1c-3.9,0-7.9-0.6-11.7-1.9c-9.4-3.1-16.9-9.7-21.3-18.5c-3.3-6.6-3.8-14.1-1.5-21
			c2.3-7,7.2-12.6,13.8-15.9c5-2.5,10.6-2.9,15.9-1.1c5.3,1.8,9.6,5.5,12,10.4c1.9,3.8,2.2,8.2,0.9,12.2c-1.4,4.1-4.2,7.3-8,9.2
			c-1.8,0.9-3.9,0.2-4.8-1.6c-0.9-1.8-0.2-3.9,1.6-4.8c2.1-1.1,3.7-2.9,4.4-5.1c0.7-2.2,0.6-4.6-0.5-6.8c-1.6-3.3-4.4-5.7-7.9-6.9
			c-3.5-1.2-7.2-0.9-10.4,0.7c-4.9,2.4-8.5,6.6-10.2,11.8c-1.7,5.2-1.3,10.7,1.1,15.6c3.6,7.1,9.7,12.4,17.2,14.9
			c7.5,2.5,15.6,1.9,22.7-1.6c10.2-5.1,17.8-13.9,21.4-24.7c3.6-10.8,2.8-22.4-2.3-32.6c-0.9-1.8-0.2-3.9,1.6-4.8
			c1.8-0.9,3.9-0.2,4.8,1.6c6,11.9,6.9,25.4,2.7,38.1c-4.2,12.6-13.1,22.9-25,28.8C328.4,622.8,322.8,624.1,317.2,624.1z"/>
	</g>
	<g>
		<path class="st0" d="M403.9,636.2c-7.5,0-14.6-1.8-20.8-5.4c-9.8-5.6-17-15.4-20.3-27.6c-2.5-9-1.3-18.4,3.3-26.5
			c4.6-8.1,12.1-13.9,21.1-16.4c6.7-1.9,13.8-1,19.9,2.5c6.1,3.5,10.4,9.1,12.3,15.8c2.9,10.5-3.3,21.5-13.8,24.4
			c-3.9,1.1-8,0.6-11.6-1.4c-3.6-2-6.1-5.3-7.2-9.2c-0.5-1.9,0.6-3.9,2.5-4.4c1.9-0.5,3.9,0.6,4.4,2.5c0.6,2.1,1.9,3.8,3.8,4.9
			c1.9,1.1,4.1,1.3,6.2,0.8c6.7-1.9,10.7-8.8,8.9-15.6c-1.3-4.9-4.5-9-8.9-11.5c-4.4-2.5-9.5-3.1-14.4-1.8
			c-7.2,2-13.1,6.6-16.8,13.1c-3.7,6.5-4.6,14-2.6,21.1c2.9,10.5,8.8,18.5,17,23.3c8.2,4.7,18.1,5.7,28.5,2.9
			c1.9-0.5,3.9,0.6,4.4,2.5c0.5,1.9-0.6,3.9-2.5,4.4C412.6,635.6,408.2,636.2,403.9,636.2z"/>
	</g>
	<g>
		<path class="st0" d="M346.8,653.5c-8.1,0-16-4.2-20.2-11.8c-2.3-4.1-2.9-8.9-1.6-13.4c1.3-4.6,4.2-8.3,8.4-10.7
			c6.6-3.7,15-1.4,18.7,5.2c1,1.7,0.4,3.9-1.4,4.9c-1.7,1-3.9,0.4-4.9-1.4c-1.8-3.2-5.8-4.3-9-2.5c-2.5,1.4-4.2,3.6-5,6.4
			c-0.8,2.7-0.4,5.6,1,8c4.3,7.7,14.2,10.4,21.9,6.1c5.1-2.9,9.2-9.6,10.8-18c1.6-8.2,0.7-16.7-2.4-22.2c-1-1.7-0.4-3.9,1.4-4.9
			c1.7-1,3.9-0.4,4.9,1.4c4,7.1,5.2,17.2,3.2,27.1c-2.1,10.5-7.3,18.9-14.3,22.8C354.6,652.6,350.7,653.5,346.8,653.5z"/>
	</g>
	<g>
		<path class="st0" d="M475.2,499.7c0,0-0.1,0-0.1,0c-1.8-0.1-3.3-1.6-3.2-3.4c0.6-20.2,2.4-203.1-125-408c-1-1.6-0.5-3.6,1.1-4.6
			c1.6-1,3.6-0.5,4.6,1.1c128.4,206.6,126.6,391.3,126,411.7C478.4,498.3,477,499.7,475.2,499.7z"/>
	</g>
	<g>
		<path class="st0" d="M459.3,610.5c-1.2,0-2.3-0.6-2.9-1.7c-0.9-1.6-0.3-3.6,1.3-4.5c55.9-31.5,53.1-102,49.3-199.6
			c-0.9-23.9-1.9-48.6-2.2-75.2C502.9,160.1,516.8,65,517,64.1c0.3-1.8,2-3,3.8-2.8c1.8,0.3,3.1,2,2.8,3.8
			c-0.1,0.9-13.9,95.5-12.1,264.4c0.3,26.5,1.3,51.2,2.2,75c4,99.9,6.8,172.1-52.6,205.6C460.4,610.4,459.9,610.5,459.3,610.5z"/>
	</g>
	<g>
		<path class="st0" d="M396.1,93.9c-11.9,0-22.9-0.8-32.6-2.3c-22.3-3.5-34.7-10.6-36-20.5c-1.3-9.9,8.9-20,29.6-29
			c19.1-8.4,44.9-15,72.9-18.6c51.8-6.7,108.4-2,111.2,19.9l0,0c1.3,9.9-9,20-29.6,29c-19.1,8.4-45,15-72.9,18.6
			C423.9,93,409.5,93.9,396.1,93.9z M472.8,27.8c-12.6,0-26.7,0.9-41.9,2.8c-27.3,3.5-52.4,9.9-70.9,18
			c-16.4,7.2-26.1,15.4-25.4,21.5c0.8,6.1,12.3,11.6,30,14.3c19.9,3.1,45.9,2.9,73.2-0.6c27.3-3.5,52.4-9.9,70.9-18
			c16.4-7.2,26.1-15.4,25.4-21.5C532.9,35,509,27.8,472.8,27.8z"/>
	</g>
	<g>
		<path class="st0" d="M393.1,132.7c-17.6,0-30.8-2.3-31.8-9c-0.6-3.6,2.4-6.7,7.3-7.6c1.8-0.3,3.5,0.8,3.9,2.6
			c0.3,1.8-0.8,3.5-2.6,3.9c-0.5,0.1-0.9,0.2-1.2,0.4c3.4,1.8,18.1,6.4,75.7-0.8c71-8.9,73.1-21.9,73.1-22.5
			c0.1-0.6-0.4-0.8-0.4-0.8c-1.8,0-3.2-1.5-3.2-3.3c0-1.8,1.6-3.3,3.4-3.3c3.1,0,6.6,2.6,6.8,6.8c0.8,12.7-27.2,23.2-78.9,29.7
			C427.7,130.9,408.6,132.7,393.1,132.7z"/>
	</g>
	<g>
		<path class="st0" d="M410.5,177.8c-15,0-26.3-2.1-27.3-8.2c-0.6-3.3,2.2-6.4,6.5-7.3c1.8-0.4,3.5,0.8,3.9,2.6
			c0.4,1.8-0.8,3.5-2.6,3.9c-0.1,0-0.1,0-0.1,0c3.7,1.7,17.1,4.9,62.2-1.1c55.8-7.4,60.3-18.2,60.6-19.4c0.1-0.4,0-0.6,0-0.7
			c-1.8,0-3.1-1.4-3.1-3.3c0-1.8,1.7-3.3,3.5-3.3c2.8,0,6,2.4,6.3,6.3c0.4,6.7-7.6,19-66.4,26.9
			C439.4,176.2,423.5,177.8,410.5,177.8z"/>
	</g>
	<g>
		<path class="st0" d="M430.5,235.7c-13.2,0-20.5-2.6-21.7-7.9c-0.7-3.3,1.6-6.6,5.4-7.6c1.8-0.5,3.6,0.6,4,2.4
			c0.5,1.8-0.6,3.6-2.4,4c0,0-0.1,0-0.1,0c2.1,1.4,11.5,5.2,47.7-1.1c38.6-6.6,45.2-15.9,46.3-18.5c0.3-0.8,0.3-1.4,0.3-1.7
			c-1.3-0.4-2.3-1.7-2.3-3.1c0-1.8,1.5-3.3,3.3-3.3c2.8,0,5.3,2.7,5.6,6.1c0.5,5.4-3.7,18.8-52.1,27.1
			C450.8,234.5,439.3,235.7,430.5,235.7z"/>
	</g>
	<path class="st0" d="M487.4,257c0,7.4-6,13.4-13.4,13.4c-7.4,0-13.4-6-13.4-13.4c0-7.4,6-13.4,13.4-13.4
		C481.4,243.6,487.4,249.6,487.4,257z"/>
	<path class="st0" d="M489.2,304.5c0,6.1-4.9,11-11,11c-6.1,0-11-4.9-11-11c0-6.1,4.9-11,11-11C484.3,293.6,489.2,298.5,489.2,304.5
		z"/>
	<path class="st0" d="M493.4,343.5c0,5.4-4.4,9.7-9.7,9.7c-5.4,0-9.7-4.4-9.7-9.7s4.4-9.7,9.7-9.7
		C489.1,333.8,493.4,338.1,493.4,343.5z"/>
	<path class="st0" d="M494.7,378.2c0,4.4-3.5,7.9-7.9,7.9s-7.9-3.5-7.9-7.9c0-4.4,3.5-7.9,7.9-7.9S494.7,373.9,494.7,378.2z"/>
	<path class="st0" d="M497.7,413.5c0,4-3.3,7.3-7.3,7.3c-4,0-7.3-3.3-7.3-7.3c0-4,3.3-7.3,7.3-7.3
		C494.4,406.2,497.7,409.5,497.7,413.5z"/>
	<path class="st0" d="M497.7,450.7c0,3.7-3,6.7-6.7,6.7c-3.7,0-6.7-3-6.7-6.7c0-3.7,3-6.7,6.7-6.7C494.7,444,497.7,447,497.7,450.7z
		"/>
	<g>
		<path class="st0" d="M464,488.1c-6.2-55.3-17.5-90-33.7-103c-11.6-9.3-26-8.7-32.7-2.8c-1.7,1.5-4,4.3-2.8,8.4
			c5-2.7,13.2-4.2,20.3,3.3c4.9,5.2,5.9,11.7,2.8,17.5c-4,7.4-13.7,11.3-23.4,9.5c-14.2-2.6-26.2-15-29.1-30.1
			c-3-15.5,4-29.8,19-39.3c11.9-7.5,26.9-7.7,41-0.4c29.8,15.3,49.4,57.5,52.6,112.7l-5.3,0.3c-3.1-53.4-21.7-93.8-49.8-108.3
			c-12.6-6.5-25.3-6.4-35.7,0.2c-13.1,8.3-19.2,20.6-16.6,33.8c2.5,13,12.7,23.7,24.8,25.9c8.8,1.6,15.4-2.4,17.8-6.8
			c2.1-3.8,1.4-7.8-2-11.3c-7.2-7.7-15-1.7-15.9-1l-2.4,1.9l-1.6-2.6c-3.8-6.3-2.7-12.8,2.8-17.6c8.5-7.4,25.6-8.5,39.5,2.6
			c17.4,13.9,29.4,49.7,35.7,106.5L464,488.1z"/>
	</g>
	<g>
		<g>
			<path class="st0" d="M437.2,232.5c-4.9-17.9-12.1-37.2-21.4-57.4c-8.8-19.2-17.4-34.9-23.1-44.6l3.4-2c5.7,9.8,14.4,25.6,23.3,45
				c9.4,20.4,16.6,40,21.6,58L437.2,232.5z"/>
		</g>
		<g>
			<path class="st0" d="M448,231.4c-3.6-16.9-9.3-36.2-16.8-57.4c-5.1-14.5-10.9-29.5-17.4-44.7l3.7-1.6
				c6.5,15.3,12.4,30.4,17.5,44.9c7.6,21.4,13.3,40.9,16.9,57.9L448,231.4z"/>
		</g>
		<g>
			<path class="st0" d="M458.8,229.6c-2.3-15.8-6.4-35.2-12-57.6c-3.6-14.2-7.8-29.3-12.4-44.9l3.8-1.1c4.6,15.7,8.8,30.8,12.4,45.1
				c5.7,22.5,9.7,42,12.1,58L458.8,229.6z"/>
		</g>
		<g>
			<path class="st0" d="M469.6,227.6c-1-15.4-3.3-35.5-6.8-58c-2.2-13.8-4.9-29.1-8-45.4l3.9-0.7c3.1,16.3,5.8,31.7,8,45.5
				c2.5,15.8,5.7,38.7,6.9,58.4L469.6,227.6z"/>
		</g>
		<g>
			<path class="st0" d="M484.8,224.9l-4-0.1c0.5-14.5-0.1-34.2-1.7-58.4c-1.1-16.3-2.5-33.5-3.7-45.9l4-0.4
				c1.3,12.5,2.7,29.7,3.7,46C484.7,190.4,485.3,210.2,484.8,224.9z"/>
		</g>
		<g>
			<path class="st0" d="M496.6,221.3l-3.9-0.5c2.4-17.9,3.3-42.1,3.6-59.3c0.4-18.3,0.4-35.5,0.2-46.6l4-0.1
				c0.1,11.2,0.2,28.4-0.2,46.8C499.9,178.9,499.1,203.3,496.6,221.3z"/>
		</g>
	</g>
	<g>
		<path class="st0" d="M529.2,842.3c-136.9,0-234.2-101.4-235.4-102.6l5.8-5.4c1.4,1.4,137.7,143.3,313.1,86.9
			c9.2-7.2,138.7-112,108.5-263.6l7.8-1.6c32.1,161.3-110.6,270.8-112,271.9l-1.2,0.6C585.7,838.2,556.6,842.3,529.2,842.3z"/>
	</g>
	<g>
		<path class="st0" d="M389,798.5c-13.8,0-27.3-7.3-34.5-20.1c-7.9-14.1-2.9-32.1,11.2-40c5.1-2.9,11.1-3.6,16.8-2
			c5.7,1.6,10.4,5.3,13.3,10.4c2.2,3.9,2.7,8.4,1.5,12.8c-1.2,4.3-4,7.9-7.9,10.1c-1.6,0.9-3.6,0.3-4.5-1.3
			c-0.9-1.6-0.3-3.6,1.3-4.5c2.4-1.3,4.1-3.5,4.8-6.1c0.7-2.6,0.4-5.4-0.9-7.7c-2-3.6-5.3-6.2-9.3-7.3c-4-1.1-8.1-0.6-11.7,1.4
			c-10.9,6.1-14.8,20-8.7,31c8.9,15.8,29,21.4,44.8,12.5c22.6-12.7,30.6-41.4,17.9-64c-0.9-1.6-0.3-3.6,1.3-4.5
			c1.6-0.9,3.6-0.3,4.5,1.3c14.5,25.8,5.3,58.5-20.4,73C402.2,796.9,395.5,798.5,389,798.5z"/>
	</g>
	<g>
		<path class="st0" d="M488.8,790c-4.4,0-8.8-1.1-12.9-3.2c-5-2.6-8.6-7-10.3-12.3c-1.7-5.4-1.2-11,1.4-16c2-3.8,5.3-6.6,9.4-7.9
			c4.1-1.3,8.4-0.9,12.2,1.1c1.6,0.8,2.2,2.8,1.4,4.5c-0.8,1.6-2.8,2.2-4.5,1.4c-2.2-1.2-4.8-1.4-7.2-0.6c-2.4,0.8-4.4,2.4-5.5,4.6
			c-1.8,3.4-2.1,7.3-1,10.9c1.2,3.7,3.7,6.6,7.1,8.4c5,2.6,10.8,3.1,16.2,1.4c5.4-1.7,9.8-5.4,12.5-10.4c7.9-15.1,2-33.7-13.1-41.6
			c-21.6-11.3-48.2-2.9-59.5,18.7c-0.8,1.6-2.8,2.2-4.5,1.4c-1.6-0.8-2.2-2.8-1.4-4.5c12.9-24.8,43.6-34.4,68.4-21.5
			c18.3,9.5,25.4,32.2,15.9,50.5c-3.4,6.6-9.2,11.5-16.3,13.7C494.5,789.6,491.6,790,488.8,790z"/>
	</g>
	<g>
		<path class="st0" d="M538.3,753.8c-8.8,0-17.7-3.2-24.6-9.8c-10.7-10.1-11.2-27.1-1.1-37.8c3.7-3.9,8.7-6.2,14.1-6.3
			c5.3-0.2,10.5,1.8,14.4,5.5c3,2.8,4.7,6.7,4.8,10.8c0.1,4.1-1.4,8-4.2,11c-1.3,1.3-3.3,1.4-4.7,0.1c-1.3-1.3-1.4-3.4-0.1-4.7
			c1.6-1.7,2.5-4,2.4-6.3c-0.1-2.4-1-4.5-2.8-6.2c-2.6-2.5-6.1-3.7-9.7-3.7c-3.6,0.1-7,1.6-9.5,4.2c-7.6,8.1-7.3,20.8,0.8,28.4
			c11.7,11.1,30.3,10.5,41.3-1.2c7.7-8.1,11.8-18.8,11.4-30c-0.3-11.2-5-21.6-13.1-29.3c-1.3-1.3-1.4-3.4-0.1-4.7
			c1.3-1.3,3.4-1.4,4.7-0.1c9.4,8.9,14.8,20.9,15.2,33.9c0.4,13-4.3,25.3-13.2,34.7C557.3,750,547.8,753.8,538.3,753.8z"/>
	</g>
	<g>
		<path class="st0" d="M629.9,723.8c-3,0-6.1-0.5-9.1-1.6c-10.7-3.8-16.4-15.6-12.6-26.4c2.9-8.2,11.9-12.5,20.1-9.6
			c1.7,0.6,2.6,2.5,2,4.2c-0.6,1.7-2.5,2.6-4.2,2c-4.8-1.7-10,0.8-11.7,5.6c-2.6,7.3,1.2,15.3,8.5,17.9c10.8,3.8,22.7-1.9,26.5-12.7
			c2.7-7.6,2.3-15.8-1.2-23.1c-3.5-7.3-9.6-12.8-17.2-15.5c-22.5-8-47.2,3.8-55.2,26.3c-0.6,1.7-2.5,2.6-4.2,2
			c-1.7-0.6-2.6-2.5-2-4.2c9.2-25.9,37.7-39.5,63.6-30.3c9.3,3.3,16.7,10,20.9,18.8c4.2,8.9,4.8,18.9,1.5,28.1
			C651.8,716.8,641.2,723.8,629.9,723.8z"/>
	</g>
	<g>
		<path class="st0" d="M472,837.2c-11.2,0-21.9-6.5-26.7-17.3c-2.4-5.4-2.5-11.3-0.4-16.8c2.1-5.5,6.2-9.8,11.6-12.2
			c4.1-1.8,8.6-1.9,12.8-0.3c4.2,1.6,7.5,4.7,9.3,8.8c0.7,1.7,0,3.6-1.7,4.4c-1.7,0.7-3.6,0-4.4-1.7c-1.1-2.5-3.1-4.4-5.6-5.3
			c-2.5-1-5.3-0.9-7.7,0.2c-3.7,1.7-6.6,4.7-8.1,8.5c-1.5,3.8-1.4,8,0.3,11.7c5.1,11.4,18.4,16.5,29.8,11.5
			c16.5-7.3,23.9-26.7,16.6-43.1c-0.7-1.7,0-3.6,1.7-4.4c1.7-0.8,3.6,0,4.4,1.7c8.8,19.8-0.2,43.1-20,51.9
			C480,836.4,476,837.2,472,837.2z"/>
	</g>
	<g>
		<path class="st0" d="M672,686.8c-7.5,0-14.8-1.9-21.3-5.8c-1.6-0.9-2.1-3-1.2-4.5c0.9-1.6,3-2.1,4.5-1.2c8.6,5.1,19,6.2,29.2,3.2
			c10-2.9,18.7-9.7,23.8-18.5c3.6-6.1,4.6-13.2,2.8-20.1c-1.8-6.8-6.1-12.6-12.2-16.2c-8.6-5.1-19.7-2.2-24.8,6.4
			c-3.4,5.8-1.5,13.2,4.3,16.6c1.8,1.1,3.9,1.4,5.9,0.8c2-0.5,3.7-1.8,4.8-3.6c0.9-1.6,3-2.1,4.5-1.2c1.6,0.9,2.1,3,1.2,4.5
			c-2,3.3-5.1,5.7-8.8,6.6c-3.7,1-7.6,0.4-10.9-1.5c-8.9-5.2-11.9-16.8-6.6-25.6c6.9-11.7,22.1-15.7,33.9-8.7
			c7.6,4.5,13,11.7,15.2,20.2c2.2,8.6,1,17.5-3.5,25.1c-6,10.2-16.1,18-27.7,21.4C680.8,686.1,676.4,686.8,672,686.8z"/>
	</g>
	<g>
		<path class="st0" d="M645.5,778.8c-0.4,0-0.7,0-1.1,0c-7.3-0.3-14.1-3.4-19.1-8.8c-13.8-14.9-12.9-38.3,2-52.2
			c1.3-1.2,3.4-1.2,4.7,0.2c1.2,1.3,1.2,3.4-0.2,4.7c-12.3,11.4-13,30.6-1.6,42.8c3.8,4.1,8.9,6.5,14.5,6.7c5.5,0.2,10.9-1.8,15-5.5
			c5.7-5.3,6.1-14.2,0.8-19.9c-3.5-3.7-9.3-4-13-0.5c-1.3,1.2-3.4,1.2-4.7-0.2c-1.2-1.3-1.2-3.4,0.2-4.7c6.4-5.9,16.4-5.5,22.4,0.9
			c7.8,8.4,7.3,21.5-1.1,29.3C659,776.2,652.4,778.8,645.5,778.8z"/>
	</g>
	<g>
		<path class="st0" d="M551.8,833.1c-13.1,0-25.7-7.2-32-19.7c-11.9-23.8-2.2-52.8,21.6-64.7c1.6-0.8,3.6-0.2,4.4,1.5
			c0.8,1.6,0.2,3.6-1.5,4.4c-20.5,10.3-28.9,35.3-18.6,55.9c7.2,14.3,24.6,20.1,39,13c9.8-4.9,13.8-16.9,8.9-26.8
			c-3.3-6.6-11.4-9.3-18-6c-2.1,1-3.6,2.8-4.4,5.1c-0.7,2.2-0.6,4.6,0.5,6.7c0.8,1.6,0.2,3.6-1.5,4.4c-1.6,0.8-3.6,0.2-4.4-1.5
			c-1.8-3.7-2.1-7.8-0.8-11.7c1.3-3.9,4-7.1,7.7-8.9c4.8-2.4,10.2-2.8,15.3-1.1c5.1,1.7,9.2,5.3,11.6,10.1
			c6.6,13.1,1.2,29.1-11.9,35.7C562.5,831.8,557.1,833.1,551.8,833.1z"/>
	</g>
	<g>
		<path class="st0" d="M582,810.3c-1.6,0-2.9-1.1-3.2-2.7c-0.3-1.8,0.8-3.5,2.6-3.9c10.1-2,18.9-7.7,24.7-16.3
			c5.8-8.5,7.9-18.8,5.9-28.9c-2.8-14.5-16.9-24.1-31.5-21.3c-4.8,0.9-9,3.7-11.8,7.8c-2.8,4.1-3.7,9-2.8,13.8
			c0.6,3.2,2.5,6,5.2,7.9c2.7,1.8,6,2.5,9.2,1.9c2.1-0.4,3.9-1.6,5.1-3.3c1.2-1.8,1.6-3.9,1.2-5.9c-0.3-1.8,0.8-3.5,2.6-3.9
			c1.8-0.4,3.5,0.8,3.9,2.6c0.7,3.8,0,7.7-2.2,10.9c-2.2,3.2-5.5,5.4-9.3,6.1c-5,1-10-0.1-14.2-2.9c-4.2-2.8-7-7.1-8-12.1
			c-1.3-6.5,0.1-13.2,3.8-18.7c3.7-5.5,9.4-9.3,16-10.6c18.1-3.5,35.7,8.4,39.2,26.5c2.3,11.9-0.2,23.9-6.9,33.9
			c-6.8,10-17,16.8-28.9,19.1C582.5,810.3,582.3,810.3,582,810.3z"/>
	</g>
	<g>
		<path class="st0" d="M355.5,964.1c-13.5,0-26.4-3.2-38.5-9.7c-27.2-14.6-47.8-44.9-55.2-80.9c-21.9-106.8,23.6-192.3,24.1-193.2
			c0.9-1.6,2.9-2.2,4.5-1.3c1.6,0.9,2.2,2.9,1.3,4.5c-0.5,0.8-44.8,84.3-23.4,188.7c7,34.2,26.4,62.8,51.9,76.4
			c20.7,11.1,44.4,11.9,68.5,2.2c35-14.1,43.7-46.1,40.5-69.3c-3.7-27.2-22-46.5-46.6-49.2c-22.1-2.4-37.8,6.6-43,24.8
			c-4.8,17,1.3,37.4,12.8,42.9c10.5,5,19.3,5.6,24.8,1.7c3.4-2.4,5.3-6.5,5-10.7c-0.3-3.9-2.4-7-5.8-8.5c-9.1-4.2-22.6,4-22.8,4.1
			c-1,0.6-2.2,0.6-3.3,0.1c-1-0.6-1.7-1.6-1.8-2.8c-0.5-11.4,3.8-20.4,12.2-25.2c9.9-5.7,24.1-4.5,35.5,2.8
			c13.2,8.5,19.9,23.1,18.3,40c-2,21.3-25.7,41.2-51.7,43.5c-16.7,1.5-57.7-2.7-77.2-73.1c-30.1-108.7,10.8-191.6,11.2-192.4
			c0.8-1.6,2.8-2.3,4.4-1.5c1.6,0.8,2.3,2.8,1.5,4.4c-0.4,0.8-40.2,81.5-10.7,187.6c18.2,65.6,55.2,69.6,70.3,68.3
			c23-2,43.9-19.2,45.7-37.5c1.4-14.3-4.2-26.6-15.3-33.8c-9.3-6-20.8-7.1-28.6-2.6c-4.9,2.8-7.9,7.6-8.7,13.9
			c5.9-2.6,15.6-5.5,23.8-1.8c5.5,2.5,9.1,7.7,9.6,13.9c0.6,6.6-2.4,13-7.8,16.7c-4.4,3-14.3,6.9-31.4-1.2
			c-14.4-6.9-22.1-30.5-16.3-50.7c2.9-10.2,13.6-33.6,50.1-29.6c27.3,3,48.3,25,52.4,54.9c3.5,25.5-6.1,60.8-44.6,76.3
			C379.1,961.7,367.1,964.1,355.5,964.1z"/>
	</g>
</g>
</svg>
