<?xml version="1.0" encoding="utf-8"?>
<!-- Generator: Adobe Illustrator 22.0.0, SVG Export Plug-In . SVG Version: 6.00 Build 0)  -->
<svg version="1.1" id="Layer_1" xmlns="http://www.w3.org/2000/svg" xmlns:xlink="http://www.w3.org/1999/xlink" x="0px" y="0px"
	 viewBox="0 0 1225.9 125.2" style="enable-background:new 0 0 1225.9 125.2;" xml:space="preserve">
<style type="text/css">
	.st0{fill:url(#SVGID_1_);}
</style>
<linearGradient id="SVGID_1_" gradientUnits="userSpaceOnUse" x1="611.042" y1="131.537" x2="614.0419" y2="-16.9555">
	<stop  offset="0" style="stop-color:#d9947f"/>
	<stop  offset="0.296" style="stop-color:#d9947f"/>
	<stop  offset="1" style="stop-color:#d9947f"/>
</linearGradient>
<path class="st0" d="M923.8,39.7c-57.1,0.2-159.2,2.5-159.8,2.1c-44.4-32.3-102.2-31-123.3-24.7c-13.8,4.1-22.5,10.4-27.9,15.7
	c-5.3-5.3-14.1-11.5-27.9-15.7c-21.2-6.3-79-7.6-123.3,24.7c-0.6,0.4-102.7-1.9-159.8-2.1c-135.3-0.5-294.1,4-294.1,5.1
	c0,1.1,157.4,4.9,292.6,4.4c62.1-0.2,161.6,0.9,164.3-4.1c0,0,0.1,0,0.1,0c13.9-8.5,34.1-19.2,45.6-21.7c65.1-14.1,87.9,6.9,96.8,17
	c-9.7,16.4-6.1,33.5-1.2,41c0.2,0.3,0.4,0.5,0.6,0.7c-8.7,7.4-25,13.8-41.7-2.6c-11.1-18.9,2.3-33.8,12.2-33.3
	c13.9,0.7,12.6,10.1,12.3,13.2c-0.3,2.9-2,5.3-5.1,6.8c-2.3,1.2-5.5,4.6-4.4,7c2.6,5.4,8.8,3.8,11.1,2.6c6-3,8.4-9.4,7.8-15.6
	c-0.8-6.9-3.5-24.3-25.6-19.8c-6.2,1.3-23.7,10.4-15.9,36.6c-4-2.2-17.5-10.1-20.2-11.6c-7.6-4.9-10-9.2-12.3-14.7
	c-1.7-4.1,0.2-10.1,3.6-11.6c2.1-0.9,5.3-0.2,6.6,1.4c1.4,1.7,0.1,4.3-1.2,6.3c-3,4.6,4.3,10.6,9.7,5.3c6.9-6.8,2.8-15.5-0.7-18.3
	c-4-3.3-13-5.5-19.3-0.2c-3.7,3.1-10.4,13.9,3.4,28.1c-8.4-6.1-23.1-8.8-32.4-6.5c-12.8,3.2-21.9,12.4-22.6,25.6
	c-0.8,15.4,10.3,25.3,15.8,28.6c7.4,4.4,19.8,3.8,25.5-0.4c12-8.9,11.9-33.1-6.7-33.8c-5.9-0.2-12.6,3.8-14.5,8.5
	c-3,7.8,2.3,10.1,4.5,10.6c8.7,1.7,7.9-10.4,14.5-4.7c3.4,2.9,0.9,9.8-3,12.9c-3.9,3.1-10,3.8-15.6,1.8c-9-3.2-15.4-12.7-15-22.2
	c0.4-9.5,7.7-18.4,16.9-20.7c5.6-1.4,15.1-2.1,22.3,0.7c16.8,6.5,44.8,27.3,55,31.2c2.4,1.3,4.8,2.3,6.9,2.9
	c3.9,1.1,7.7,1.6,11.5,1.5c8.5-0.1,16.4-3.2,22.6-8.5c6.3,5.3,14.1,8.4,22.6,8.5c3.8,0,7.6-0.5,11.5-1.5c2.1-0.6,4.5-1.6,6.9-2.9
	c10.1-3.9,38.2-24.7,55-31.2c7.3-2.8,16.7-2.2,22.3-0.7c9.2,2.3,16.5,11.3,16.9,20.7c0.4,9.5-6,19-15,22.2c-5.6,2-11.7,1.3-15.6-1.8
	c-4-3.1-6.4-10-3-12.9c6.6-5.7,5.8,6.4,14.5,4.7c2.2-0.4,7.5-2.8,4.5-10.6c-1.8-4.7-8.5-8.8-14.5-8.5c-18.6,0.7-18.7,24.9-6.7,33.8
	c5.7,4.2,18.1,4.8,25.5,0.4c5.5-3.3,16.6-13.2,15.8-28.6c-0.7-13.2-9.7-22.4-22.6-25.6c-9.2-2.3-23.9,0.4-32.4,6.5
	c13.8-14.2,7.1-25,3.4-28.1c-6.3-5.3-15.3-3.1-19.3,0.2c-3.5,2.9-7.5,11.6-0.7,18.3c5.4,5.3,12.7-0.6,9.7-5.3
	c-1.3-1.9-2.6-4.6-1.2-6.3c1.3-1.6,4.5-2.2,6.6-1.4c3.4,1.4,5.2,7.5,3.6,11.6c-2.3,5.5-4.7,9.8-12.3,14.7
	c-2.7,1.5-16.2,9.4-20.2,11.6c7.8-26.2-9.7-35.4-15.9-36.6c-22-4.6-24.8,12.8-25.6,19.8c-0.7,6.2,1.7,12.6,7.8,15.6
	c2.3,1.2,8.5,2.8,11.1-2.6c1.1-2.3-2-5.8-4.4-7c-3.1-1.5-4.9-3.9-5.1-6.8c-0.3-3.1-1.5-12.4,12.3-13.2c9.8-0.5,23.3,14.4,12.2,33.3
	c-16.7,16.4-33,9.9-41.7,2.6c0.2-0.3,0.4-0.5,0.6-0.7c4.8-7.5,8.5-24.7-1.2-41c8.8-10,31.7-31.1,96.8-17
	c11.5,2.5,31.7,13.2,45.6,21.7c0,0,0.1,0,0.1,0c2.7,5,102.2,3.9,164.3,4.1c135.2,0.5,292.6-3.3,292.6-4.4
	C1217.9,43.7,1059.1,39.2,923.8,39.7z M612.8,74.4c-4.3-8-4.2-17.3,0-25.7C617,57.1,617.1,66.4,612.8,74.4z"/>
</svg>
