<?xml version="1.0" encoding="utf-8"?>
<!-- Generator: Adobe Illustrator 22.0.0, SVG Export Plug-In . SVG Version: 6.00 Build 0)  -->
<svg version="1.1" id="Layer_1" xmlns="http://www.w3.org/2000/svg" xmlns:xlink="http://www.w3.org/1999/xlink" x="0px" y="0px"
	 viewBox="0 0 500 500" style="enable-background:new 0 0 500 500;" xml:space="preserve">
<style type="text/css">
	.st0{fill:url(#SVGID_1_);}
	.st1{fill:url(#SVGID_2_);}
	.st2{fill:url(#SVGID_3_);}
	.st3{fill:url(#SVGID_4_);}
	.st4{fill:url(#SVGID_5_);}
	.st5{fill:url(#SVGID_6_);}
	.st6{fill:url(#SVGID_7_);}
	.st7{fill:url(#SVGID_8_);}
	.st8{fill:url(#SVGID_9_);}
	.st9{fill:url(#SVGID_10_);}
	.st10{fill:url(#SVGID_11_);}
	.st11{fill:url(#SVGID_12_);}
	.st12{fill:url(#SVGID_13_);}
	.st13{fill:url(#SVGID_14_);}
	.st14{fill:url(#SVGID_15_);}
	.st15{fill:url(#SVGID_16_);}
	.st16{fill:url(#SVGID_17_);}
</style>
<g>
	<radialGradient id="SVGID_1_" cx="266.8348" cy="313.9446" r="89.2704" gradientUnits="userSpaceOnUse">
		<stop  offset="0" style="stop-color:#DD7916"/>
		<stop  offset="0.5323" style="stop-color:#9B3C03"/>
		<stop  offset="0.702" style="stop-color:#7B2F03"/>
		<stop  offset="0.9409" style="stop-color:#481B02"/>
		<stop  offset="1" style="stop-color:#823203"/>
	</radialGradient>
	<path class="st0" d="M205.7,248.8c-6.9,18.1-10.5,36.5-11.5,55.4c-0.8,16.3,1.7,32.1,7.9,47.1c10.2,25,30.4,38.2,57.9,38.5
		c14,0.2,27.2-2.1,38.3-11.1c18-14.6,22.6-33.6,17.4-55.6c-5.2-21.9-14.3-33.1-35.9-44.5c9.5-0.3,19.1-0.6,28.6-1
		c4.1-0.2,8.2-0.4,12.1-1.5c10.7-2.9,18.5-13.7,18.3-24.7c-0.2-9.4-7.8-18.3-18.4-20.3c-5.8-1.1-12-0.3-18-0.4c-1.1,0-2.2,0.3-3.4,0
		c10.4-6.4,21.2-11,33.7-7.9c12.9,3.2,21.5,16.4,20.5,30.9c-1,15.2-8.4,26.7-20.6,35.2c-3.3,2.3-3.7,3.8-1.8,7.3
		c14.3,26.1,11.6,58.7-6,80c-17.3,21-63.9,40.5-96.3,22.9c-26-14.2-42.7-34.9-46.9-65c-4.1-29.4,0.5-56.5,19.5-80.1
		C202.7,252.2,204.2,250.5,205.7,248.8z"/>
	<radialGradient id="SVGID_2_" cx="311.387" cy="382.6216" r="103.4891" gradientUnits="userSpaceOnUse">
		<stop  offset="0" style="stop-color:#DD7916"/>
		<stop  offset="0.5323" style="stop-color:#9B3C03"/>
		<stop  offset="0.702" style="stop-color:#7B2F03"/>
		<stop  offset="0.9409" style="stop-color:#481B02"/>
		<stop  offset="1" style="stop-color:#823203"/>
	</radialGradient>
	<path class="st1" d="M339.5,291.2c8-5.2,15.5-7.6,23.8-7.1c21.3,1.1,37.3,10.5,47.2,29.9c12.5,24.5,12.4,48.8-2,72
		c-8.9,14.4-23.9,21.5-39.4,27.1c-26.7,9.7-54.6,11.1-82.7,12.2c-18.7,0.7-37.5,3.6-56,6.7c-15.2,2.6-21.9,14.2-18.4,29.2
		c0.8,3.6,2.3,7.2,3.9,10.6c1.5,3.2,3.6,6.2,5.4,9.4c-6.4-2.8-14.8-14.5-17-23.7c-2.9-12.1,0.2-20.6,10.4-27.8
		c11.7-8.3,25.2-11.8,39.1-13.4c16.1-1.8,32.3-2.5,48.4-4c23.1-2.2,46-5.4,66.7-16.9c12.4-6.9,22.8-15.9,26.1-30.4
		c3.3-14.5-1.8-27.6-9.4-39.6c-9.7-15.2-23.9-24.9-40.2-31.8C343.7,292.9,342,292.3,339.5,291.2z"/>
	<radialGradient id="SVGID_3_" cx="137.8445" cy="338.0578" r="80.257" gradientUnits="userSpaceOnUse">
		<stop  offset="0" style="stop-color:#DD7916"/>
		<stop  offset="0.5323" style="stop-color:#9B3C03"/>
		<stop  offset="0.702" style="stop-color:#7B2F03"/>
		<stop  offset="0.9409" style="stop-color:#481B02"/>
		<stop  offset="1" style="stop-color:#823203"/>
	</radialGradient>
	<path class="st2" d="M157.6,328.9c1.1-1.8,2.4-3.5,3.4-5.4c5.4-9,6.4-18.4,2.4-28.2c-12.1-29.6-49.9-34.1-71.3-8.4
		c-7.9,9.5-11.1,20.6-10.8,32.9c0.9,35.6,18.2,61.3,47.8,79.7c23.7,14.7,49.7,19.5,77.2,17.8c1.8-0.1,3.6-0.2,5.4-0.2
		c0.2,0,0.5,0.3,1.8,1.2c-7.1,1.2-13.3,2.7-19.5,3.4c-35.3,3.8-68.3-2.8-95.7-26.4C71,371.7,57,341.4,63.8,305
		c9.8-52.6,59.5-59.9,87.8-44.2c19.2,10.6,29,33.9,21.9,52.6C170.7,321.1,165.6,326.4,157.6,328.9z"/>
	<radialGradient id="SVGID_4_" cx="177.5808" cy="145.8719" r="63.2406" gradientUnits="userSpaceOnUse">
		<stop  offset="0" style="stop-color:#DD7916"/>
		<stop  offset="0.5323" style="stop-color:#9B3C03"/>
		<stop  offset="0.702" style="stop-color:#7B2F03"/>
		<stop  offset="0.9409" style="stop-color:#481B02"/>
		<stop  offset="1" style="stop-color:#823203"/>
	</radialGradient>
	<path class="st3" d="M199.3,123.9c2.1-4.5,4.8-8.3,5.7-12.4c2.6-11.5-3-24.6-12.4-30.5c-8.5-5.4-20-4.5-29.1,2.1
		c-10.3,7.6-15.5,19.6-10.8,31.1c6,14.8,13.9,28.8,21.3,43c4.4,8.5,10.4,16.4,14.1,25.2c6.3,14.9,2.8,29.2-5.1,42.7
		c-0.2,0.4-0.8,0.6-1.9,1.4c1-3.8,1.7-6.9,2.7-10c4.7-15.2,1.9-29.2-7-42c-8.9-12.8-18.3-25.1-27.1-38c-8.3-12.1-12.8-25.4-9.9-40.4
		c3.3-16.6,15.1-27.8,31.8-30.4c15.8-2.5,30.6,5,38.5,19.7c5.9,11.1,7.9,22.9,4.1,35.2c-3.6,11.8-14.6,18.4-25.8,15.7
		c-6-1.5-8.7-4.3-9-9.5c-0.3-3.9,0.8-7.1,4.8-8.7c5.2-2,8.7-0.9,12.7,4.1C197.2,122.4,197.5,122.5,199.3,123.9z"/>
	<radialGradient id="SVGID_5_" cx="132.6817" cy="205.4712" r="39.5507" gradientUnits="userSpaceOnUse">
		<stop  offset="0" style="stop-color:#DD7916"/>
		<stop  offset="0.5323" style="stop-color:#9B3C03"/>
		<stop  offset="0.702" style="stop-color:#7B2F03"/>
		<stop  offset="0.9409" style="stop-color:#481B02"/>
		<stop  offset="1" style="stop-color:#823203"/>
	</radialGradient>
	<path class="st4" d="M148.8,196.8c0.4-4.4,0.7-7.6,0.9-10.9c0.8-10.6-6.6-16.2-16.4-12.1c-12,5-16.5,15.8-19.4,27.3
		c-2.2,8.7-1.5,17.6,0.9,26.3c3.9,14.2,17,18,28,8.1c2.5-2.3,5.1-4.8,6.7-7.7c1.6-2.8,1.9-6.2,2.8-9.3c-0.6-0.4-1.2-0.7-1.7-1.1
		c-4.7,4-9.4,8.1-14.1,12.1c-0.4-0.1-0.9-0.2-1.3-0.4c0.2-1.9,0-3.9,0.7-5.6c4.4-10,11.5-17.8,20.8-23.5c3.5-2.2,6-1.1,7.1,2.7
		c6.3,20.3-13.7,48.1-34.7,48.3c-12.7,0.1-22.6-7-26.2-20.3c-5.9-21.5-2-41.4,12.1-58.7c8.8-10.9,20.7-14.5,34.4-10.9
		c6.5,1.7,9.5,5.8,9.6,12.5C159.2,181.6,155.8,189.7,148.8,196.8z"/>
	<radialGradient id="SVGID_6_" cx="268.8026" cy="250.1266" r="90.9042" gradientUnits="userSpaceOnUse">
		<stop  offset="0" style="stop-color:#DD7916"/>
		<stop  offset="0.5323" style="stop-color:#9B3C03"/>
		<stop  offset="0.702" style="stop-color:#7B2F03"/>
		<stop  offset="0.9409" style="stop-color:#481B02"/>
		<stop  offset="1" style="stop-color:#823203"/>
	</radialGradient>
	<path class="st5" d="M234.7,372.3c-5.7-10.8-6.9-22.4-5.4-34.3c2.5-20.5,11.4-38.4,22.4-55.5c14.9-23.2,28.7-47,38.6-72.8
		c5.7-14.7,6.2-30.3,8.8-45.7c-4.2-0.5-7.6-0.7-10.9-1.5c-2.4-0.5-4.7-1.4-6.8-2.6c-6.1-3.5-6.1-7.1-0.3-11.3
		c-1.6-6.9,0-9.6,7.4-10.8c3.3-0.6,6.8-0.5,10.5-0.7c0.2-1.7,0-3.7,0.8-5.1c0.9-1.6,2.8-2.7,4.2-4c0.9,1.4,2.3,2.7,2.5,4.1
		c6,38.8,1.2,75.8-19.9,109.7c-9.9,16-19.4,32.3-30.2,47.7C239,314.6,229.7,341.4,234.7,372.3z M291.1,151.3c-3.7-0.7-8.7,0-9.3,2.1
		c-0.5,2,3.1,5.1,6.7,6.1c4.7,1.3,10.5-0.6,10.7-2.8C299.5,154.5,295,152,291.1,151.3z M291.5,148.1c3.8,0.4,8.5-1.2,8.7-3.3
		c0.2-2-3.6-4.2-6.8-4.7c-4.3-0.8-9.5,1.1-9.7,3.2C283.6,145.4,287.8,147.7,291.5,148.1z"/>
	<radialGradient id="SVGID_7_" cx="238.4995" cy="42.0589" r="29.2698" gradientUnits="userSpaceOnUse">
		<stop  offset="0" style="stop-color:#DD7916"/>
		<stop  offset="0.5323" style="stop-color:#9B3C03"/>
		<stop  offset="0.702" style="stop-color:#7B2F03"/>
		<stop  offset="0.9409" style="stop-color:#481B02"/>
		<stop  offset="1" style="stop-color:#823203"/>
	</radialGradient>
	<path class="st6" d="M243.1,45.2c0.4-3.5-3.6-5.2-2.9-8.3c0.9-3.7,7.8-5.8,13.3-5.2c7.1,0.8,10.8,6.5,11.3,7.3
		c5,7.8,0.9,16.5,0.4,17.3c-2.6,5.3-7,7.6-11.5,9.9c-1.6,0.8-22.3,11.2-33.3,1.3c-1-0.9-3.5-3.2-4.6-7.1
		c-3.6-13.6,17.7-25.1,14-33.2c-1.8-3.8-8.4-5.6-12.3-3.4c-4,2.2-5.8,8.9-3,16c-7.5-8-5.9-20,1.2-25.1c7.2-5.1,18.1-1.8,21.6,4.2
		c3,4.9,0.8,11.5-1.7,18.7c-3.3,9.7-7.1,13.4-5.7,14.9C232.1,54.7,242.4,50.6,243.1,45.2z"/>
	<radialGradient id="SVGID_8_" cx="348.059" cy="167.7598" r="43.6279" gradientUnits="userSpaceOnUse">
		<stop  offset="0" style="stop-color:#DD7916"/>
		<stop  offset="0.5323" style="stop-color:#9B3C03"/>
		<stop  offset="0.702" style="stop-color:#7B2F03"/>
		<stop  offset="0.9409" style="stop-color:#481B02"/>
		<stop  offset="1" style="stop-color:#823203"/>
	</radialGradient>
	<path class="st7" d="M320,141.5c2.2-12,9.7-17.6,18.7-20.6c12.4-4,24.4-1.9,35.1,5.6c11.7,8.2,15.5,23.6,8,35.7
		c-4.2,6.8-9.8,13.4-16.3,18c-17.7,12.7-36.1,24.3-54.3,36.3c-0.3-0.3-0.6-0.6-0.9-0.9c1.7-1.9,3.3-4,5.3-5.6
		c11.7-9.5,23.5-18.9,35.1-28.5c4.4-3.6,8.7-7.5,12.8-11.5c9.2-8.6,11.5-18.2,6.8-27.8c-4.5-9.3-15.7-15.3-26.8-12.7
		c-6.5,1.5-12.5,5.3-18.7,8.1C323.5,138.4,322.3,139.6,320,141.5z"/>
	<radialGradient id="SVGID_9_" cx="390.121" cy="250.5041" r="30.6475" gradientUnits="userSpaceOnUse">
		<stop  offset="0" style="stop-color:#DD7916"/>
		<stop  offset="0.5323" style="stop-color:#9B3C03"/>
		<stop  offset="0.702" style="stop-color:#7B2F03"/>
		<stop  offset="0.9409" style="stop-color:#481B02"/>
		<stop  offset="1" style="stop-color:#823203"/>
	</radialGradient>
	<path class="st8" d="M355.9,242.9c1.9-5.3,3.1-11,5.9-15.7c3-5,7.8-4.2,9.2,1.4c1.7,6.6,2.6,13.5,2.9,20.3
		c0.5,13.3,9.7,20.5,22.1,16.1c5.6-2,10.8-5.5,15.6-9c5.1-3.6,9.8-5.1,11.8-2.6c1.9,2.3,0.4,7.2-3.9,11.1
		c-9.2,8.5-20.4,12.6-32.7,12.5c-15.4-0.1-26.6-11.2-29.3-27.9c-0.3-1.9-0.4-3.9-0.6-5.9C356.6,243.2,356.3,243,355.9,242.9z"/>
	<radialGradient id="SVGID_10_" cx="254.0173" cy="72.1146" r="33.2846" gradientUnits="userSpaceOnUse">
		<stop  offset="0" style="stop-color:#DD7916"/>
		<stop  offset="0.5323" style="stop-color:#9B3C03"/>
		<stop  offset="0.702" style="stop-color:#7B2F03"/>
		<stop  offset="0.9409" style="stop-color:#481B02"/>
		<stop  offset="1" style="stop-color:#823203"/>
	</radialGradient>
	<path class="st9" d="M234.9,77.3c29.8-1.7,46-30.2,58-23.3c0.3,0.2,3.5,2,4,5.2c2.3,13.5-43.6,41.3-72.2,28.9
		c-7.2-3.1-14.6-9.3-13.6-11.8C212.2,73.6,222.2,78,234.9,77.3z"/>
	<radialGradient id="SVGID_11_" cx="273.1429" cy="89.1352" r="36.4735" gradientUnits="userSpaceOnUse">
		<stop  offset="0" style="stop-color:#DD7916"/>
		<stop  offset="0.5323" style="stop-color:#9B3C03"/>
		<stop  offset="0.702" style="stop-color:#7B2F03"/>
		<stop  offset="0.9409" style="stop-color:#481B02"/>
		<stop  offset="1" style="stop-color:#823203"/>
	</radialGradient>
	<path class="st10" d="M251.9,95.7c33.9-3.8,50.6-28.3,64.7-23.7c0.4,0.1,4.1,1.4,4.9,3.9c3.4,10.8-47.2,37.2-80.5,29.4
		c-8.3-1.9-17.2-6.4-16.2-8.5C225.8,94.6,237.5,97.3,251.9,95.7z"/>
	<radialGradient id="SVGID_12_" cx="289.2832" cy="106.2657" r="37.7203" gradientUnits="userSpaceOnUse">
		<stop  offset="0" style="stop-color:#DD7916"/>
		<stop  offset="0.5323" style="stop-color:#9B3C03"/>
		<stop  offset="0.702" style="stop-color:#7B2F03"/>
		<stop  offset="0.9409" style="stop-color:#481B02"/>
		<stop  offset="1" style="stop-color:#823203"/>
	</radialGradient>
	<path class="st11" d="M266.5,110.3c35.5-1.3,54.8-23.6,69.1-18.3c0.4,0.2,4.1,1.6,4.8,4.1c2.7,10.5-51.9,32.4-86,22.6
		c-8.5-2.4-17.4-7.3-16.2-9.3C239.5,107.4,251.4,110.9,266.5,110.3z"/>
	<radialGradient id="SVGID_13_" cx="398.8597" cy="242.0903" r="13.4059" gradientUnits="userSpaceOnUse">
		<stop  offset="0" style="stop-color:#DD7916"/>
		<stop  offset="0.5323" style="stop-color:#9B3C03"/>
		<stop  offset="0.702" style="stop-color:#7B2F03"/>
		<stop  offset="0.9409" style="stop-color:#481B02"/>
		<stop  offset="1" style="stop-color:#823203"/>
	</radialGradient>
	<path class="st12" d="M412.3,242c0,7.6-5.7,13.4-13.3,13.5c-7.6,0.1-13.5-5.6-13.7-13.1c-0.1-7.4,5.7-13.5,13.2-13.6
		C405.9,228.6,412.3,234.8,412.3,242z"/>
	<radialGradient id="SVGID_14_" cx="247.4695" cy="182.0993" r="16.8803" gradientUnits="userSpaceOnUse">
		<stop  offset="0" style="stop-color:#DD7916"/>
		<stop  offset="0.5323" style="stop-color:#9B3C03"/>
		<stop  offset="0.702" style="stop-color:#7B2F03"/>
		<stop  offset="0.9409" style="stop-color:#481B02"/>
		<stop  offset="1" style="stop-color:#823203"/>
	</radialGradient>
	<path class="st13" d="M230.8,165c4.1,6.4,10.3,9.9,16.4,13.8c5.3,3.3,9.7,7.9,14.3,11.8c1.6-4,0.4-6-10.7-15.9
		c11.7,2.5,17.1,15.4,10.4,24.6c-2.2-0.5-4.4-0.9-6.6-1.3c-8.8-1.8-14.5-6.8-17.1-15.6c-1.2-4.1-3-8-4.6-12
		C232.2,168.5,231.5,166.7,230.8,165z M238.1,176.1c0.3,2.7,0.3,4,0.6,5.2c2.1,8.4,9.7,15.1,17.3,14.9c1,0,2-0.6,2.9-1.2
		c0.2-0.1,0-1.5-0.3-1.7c-0.7-0.4-1.8-0.7-2.4-0.4c-3.4,1.8-6.8,1.4-8.6-1.7c-1.3-2.2-1.1-5.4-1.5-8.1c0.4-0.2,0.9-0.3,1.3-0.5
		C244.6,180.7,241.9,178.8,238.1,176.1z"/>
	<radialGradient id="SVGID_15_" cx="217.8164" cy="239.6912" r="11.7537" gradientUnits="userSpaceOnUse">
		<stop  offset="0" style="stop-color:#DD7916"/>
		<stop  offset="0.5323" style="stop-color:#9B3C03"/>
		<stop  offset="0.702" style="stop-color:#7B2F03"/>
		<stop  offset="0.9409" style="stop-color:#481B02"/>
		<stop  offset="1" style="stop-color:#823203"/>
	</radialGradient>
	<path class="st14" d="M206.3,233.9c3.3-1.2,5.5-1.9,7.6-2.8c1.9-0.9,3.7-2,6.1-3.3c3.1,6.1,6.3,12.1,9.1,18.3
		c0.7,1.5,0,3.7-0.1,5.6c-1.9-0.6-4.3-0.6-5.6-1.8C217.7,244.9,212.4,239.7,206.3,233.9z"/>
	<radialGradient id="SVGID_16_" cx="207.5301" cy="221.5995" r="10.3449" gradientUnits="userSpaceOnUse">
		<stop  offset="0" style="stop-color:#DD7916"/>
		<stop  offset="0.5323" style="stop-color:#9B3C03"/>
		<stop  offset="0.702" style="stop-color:#7B2F03"/>
		<stop  offset="0.9409" style="stop-color:#481B02"/>
		<stop  offset="1" style="stop-color:#823203"/>
	</radialGradient>
	<path class="st15" d="M195.7,221.6c9.4,0.1,17.4-1.4,23.6-8.6c0.3,10.2-1.1,12.8-8.5,15.9C205.2,231.3,204.7,231.1,195.7,221.6z"/>
	<radialGradient id="SVGID_17_" cx="258.1652" cy="173.4612" r="17.503" gradientUnits="userSpaceOnUse">
		<stop  offset="0" style="stop-color:#DD7916"/>
		<stop  offset="0.5323" style="stop-color:#9B3C03"/>
		<stop  offset="0.702" style="stop-color:#7B2F03"/>
		<stop  offset="0.9409" style="stop-color:#481B02"/>
		<stop  offset="1" style="stop-color:#823203"/>
	</radialGradient>
	<path class="st16" d="M243.2,153.8c18.3,5.9,35.6,22.2,28.2,39.4C271.6,173.1,258.3,163.3,243.2,153.8z"/>
</g>
</svg>
